<svg xmlns="http://www.w3.org/2000/svg" viewBox="0 0 16 18" class="design-iconfont">
  <g transform="translate(-293 -41)" fill="none" fill-rule="evenodd">
    <path d="M20,0 L355,0 C366.045695,-2.02906125e-15 375,8.954305 375,20 L375,404 L375,404 L0,404 L0,20 C-1.3527075e-15,8.954305 8.954305,2.02906125e-15 20,0 Z" fill="#FFF"/>
    <rect fill="#F4F5F9" x="279" y="31" width="76" height="38" rx="19"/>
    <path d="M301,41 C303.688755,41 305.881818,43.1223067 305.99538,45.7831104 L306,46 L306,48 L307,48 C308.104569,48 309,48.8954305 309,50 L309,57 C309,58.1045695 308.104569,59 307,59 L295,59 C293.895431,59 293,58.1045695 293,57 L293,50 C293,48.8954305 293.895431,48 295,48 L296,48 L296,46 C296,43.2385763 298.238576,41 301,41 Z M301,51 C299.895431,51 299,51.8954305 299,53 C299,53.6833099 299.342674,54.2865841 299.865549,54.6473488 L299.999928,54.7323937 L300,56 L302,56 L302.001078,54.7318119 C302.598285,54.3858493 303,53.7398375 303,53 C303,51.8954305 302.104569,51 301,51 Z M301,43 C299.402319,43 298.096339,44.24892 298.005093,45.8237272 L298,46 L298,48 L304,48 L304,46 C304,44.3431458 302.656854,43 301,43 Z" fill="#254166"/>
  </g>
</svg>
