<?xml version="1.0" standalone="no"?><!DOCTYPE svg PUBLIC "-//W3C//DTD SVG 1.1//EN" "http://www.w3.org/Graphics/SVG/1.1/DTD/svg11.dtd"><svg class="icon" width="200px" height="200.00px" viewBox="0 0 1024 1024" version="1.1" xmlns="http://www.w3.org/2000/svg"><path d="M394.304 316.608A124.672 124.672 0 0 1 518.72 192a124.704 124.704 0 0 1 124.48 124.608V416h-248.896V316.608zM544 704a32 32 0 0 1-64 0v-128a32 32 0 0 1 64 0v128z m256.256-288H707.2V316.608A188.736 188.736 0 0 0 518.72 128c-103.904 0-188.416 84.608-188.416 188.608V416h-106.56A64 64 0 0 0 160 480.096v319.84A64 64 0 0 0 223.744 864h576.512A64 64 0 0 0 864 799.936v-319.84A64 64 0 0 0 800.256 416z" fill="#cdcdcd" /></svg>