<svg xmlns="http://www.w3.org/2000/svg" viewBox="0 0 52 52" class="design-iconfont">
  <g fill="#FFF" fill-rule="evenodd">
    <rect opacity=".2" width="52" height="52" rx="26"/>
    <path d="M27.8299508,20.8332066 L33.7996005,24.2021137 L25.2034688,36.6191348 L23.7154918,35.7794111 C22.3479934,38.1028023 20.2368982,38.6129765 17.7080786,37.2627975 C14.6782625,35.6451281 14.0986531,31.9670734 16.4372038,28.1627813 C16.737623,27.6740674 16.6221014,27.0294019 15.9700843,26.1405389 L17.6180346,26.1405389 C18.120034,27.1313148 18.1498414,28.0569568 17.6477441,28.8737554 C15.6904391,32.0578472 16.1300179,34.847303 18.3850779,36.0513172 C20.2576161,37.0510967 21.5179934,36.7461468 22.4923854,35.0892877 L22.5427389,35.1175807 L21.1266349,34.3184178 L27.8299508,20.8332066 Z M35.6454528,14.6172436 C37.897026,15.8878945 38.668472,18.7020875 37.3685256,20.9029195 C36.8118924,21.8453091 35.9657217,22.5224294 35.0032584,22.8889056 L28.6379234,19.2966978 C28.4813868,18.2987261 28.6582246,17.243875 29.2148577,16.3014854 C30.5148041,14.1006534 33.3938796,13.3465927 35.6454528,14.6172436 Z M22.6568542,15 L24.0710678,16.4142136 L21.95,18.535 L24.0710678,20.6568542 L22.6568542,22.0710678 L20.535,19.95 L18.4142136,22.0710678 L17,20.6568542 L19.121,18.535 L17,16.4142136 L18.4142136,15 L20.535,17.121 L22.6568542,15 Z" fill-rule="nonzero"/>
  </g>
</svg>
