<?xml version="1.0" standalone="no"?><!DOCTYPE svg PUBLIC "-//W3C//DTD SVG 1.1//EN" "http://www.w3.org/Graphics/SVG/1.1/DTD/svg11.dtd"><svg class="icon" width="200px" height="200.00px" viewBox="0 0 1024 1024" version="1.1" xmlns="http://www.w3.org/2000/svg"><path d="M675.84 13.312q49.152 0 66.048 21.504t16.896 66.56l0 204.8q0 37.888-18.432 61.44t-69.632 23.552l-310.272 0q-49.152 0-68.608-22.528t-19.456-71.68l0-195.584q0-43.008 18.432-65.536t68.608-22.528l316.416 0zM714.752 446.464q24.576 0 34.304 12.288t9.728 32.768l0 82.944q0 21.504-11.264 35.328t-39.936 13.824l-384 0q-23.552 0-37.376-9.216t-13.824-38.912l0-84.992q0-44.032 49.152-44.032l393.216 0zM804.864 677.888l0-332.8q0-27.648 15.872-39.936t39.424-12.288l47.104 0q29.696 0 39.424 18.432t9.728 37.888l0 37.888 0 77.824 0 100.352 0 101.376 0 81.92 0 43.008q0 61.44-59.392 61.44l-35.84 0 0 90.112-65.536 0 0-90.112-559.104 0 0 90.112-64.512 0 0-90.112-40.96 0q-54.272 0-56.32-63.488l0-445.44q0-25.6 15.36-38.4t38.912-12.8l39.936 0q29.696 0 43.52 15.872t14.848 41.472l0 22.528q0 16.384-0.512 40.448t-0.512 52.736l0 58.368 0 153.6 578.56 0z" fill="#e6e6e6" /></svg>