<?xml version="1.0" standalone="no"?><!DOCTYPE svg PUBLIC "-//W3C//DTD SVG 1.1//EN" "http://www.w3.org/Graphics/SVG/1.1/DTD/svg11.dtd"><svg t="1635237298580" class="icon" viewBox="0 0 1024 1024" version="1.1" xmlns="http://www.w3.org/2000/svg" p-id="11351" xmlns:xlink="http://www.w3.org/1999/xlink" width="200" height="200"><defs><style type="text/css"></style></defs><path d="M544 704a32 32 0 0 1-64 0v-128a32 32 0 0 1 64 0v128z m256.256-288H394.304V316.608A124.672 124.672 0 0 1 518.72 192a124.704 124.704 0 0 1 124.48 124.608 32 32 0 1 0 64 0A188.736 188.736 0 0 0 518.72 128c-103.904 0-188.416 84.608-188.416 188.608V416h-106.56A64 64 0 0 0 160 480.096v319.84A64 64 0 0 0 223.744 864h576.512A64 64 0 0 0 864 799.936v-319.84A64 64 0 0 0 800.256 416z" p-id="11352" fill="#515151"></path></svg>