<svg xmlns="http://www.w3.org/2000/svg" viewBox="0 0 52 52" class="design-iconfont">
  <g fill="none" fill-rule="evenodd">
    <rect fill="#FFF" opacity=".2" width="52" height="52" rx="26"/>
    <path d="M19,11 C19.552,11 20,11.448 20,12 C20,17.1763246 16.0466182,21.4467027 11.000666,21.9503227 L11,25 L15,25 C15.552,25 16,25.448 16,26 C16,26.552 15.552,27 15,27 L5,27 C4.448,27 4,26.552 4,26 C4,25.448 4.448,25 5,25 L9,25 L9.00033149,21.9504222 C8.37293765,21.8878676 7.76243048,21.7670814 7.17430847,21.593562 L8.50741826,19.8603769 C8.99110959,19.9520339 9.49006188,20 10,20 C14.411,20 18,16.411 18,12 C18,11.448 18.448,11 19,11 Z M18.6060432,1.20456828 C19.0115553,1.5135299 19.1149975,2.07193811 18.865255,2.50154401 L18.7954317,2.60604322 L2.79543172,23.6060432 C2.46072329,24.045348 1.83326159,24.1301401 1.39395678,23.7954317 C0.988444654,23.4864701 0.885002504,22.9280619 1.13474505,22.498456 L1.20456828,22.3939568 L17.2045683,1.39395678 C17.5392767,0.954651976 18.1667384,0.869859854 18.6060432,1.20456828 Z M1,11 C1.552,11 2,11.448 2,12 C2,13.7074556 2.537772,15.2917436 3.45282664,16.5923746 L2.18769374,18.2358269 C0.819177198,16.5248304 0,14.3562754 0,12 C0,11.448 0.448,11 1,11 Z M16,10.119 L16,12 C16,15.2377045 13.4337485,17.8775403 10.2248921,17.9958605 L10,18 L9.939,17.999 L16,10.119 Z M10,0 C11.8365543,0 13.4807379,0.825719164 14.5814555,2.12606217 L4.75026219,14.9068989 C4.27224339,14.0456701 4,13.0545478 4,12 L4,6 C4,2.687 6.687,0 10,0 Z" transform="translate(16 13)" fill="#C7CED7"/>
  </g>
</svg>
