<svg xmlns="http://www.w3.org/2000/svg" viewBox="0 0 52 52" class="design-iconfont">
  <g fill="#FFF" fill-rule="evenodd">
    <rect opacity=".2" width="52" height="52" rx="26"/>
    <path d="M10,18 L10,18 C6.687,18 4,15.313 4,12 L4,6 C4,2.687 6.687,0 10,0 C13.313,0 16,2.687 16,6 L16,12 C16,15.313 13.313,18 10,18" transform="translate(16 13)"/>
    <path d="M10,22 C4.486,22 0,17.514 0,12 C0,11.448 0.448,11 1,11 C1.552,11 2,11.448 2,12 C2,16.411 5.589,20 10,20 C14.411,20 18,16.411 18,12 C18,11.448 18.448,11 19,11 C19.552,11 20,11.448 20,12 C20,17.514 15.514,22 10,22" transform="translate(16 13)"/>
    <path d="M10,27 C9.448,27 9,26.552 9,26 L9,21 C9,20.448 9.448,20 10,20 C10.552,20 11,20.448 11,21 L11,26 C11,26.552 10.552,27 10,27" transform="translate(16 13)"/>
    <path d="M15,27 L5,27 C4.448,27 4,26.552 4,26 C4,25.448 4.448,25 5,25 L15,25 C15.552,25 16,25.448 16,26 C16,26.552 15.552,27 15,27" transform="translate(16 13)"/>
  </g>
</svg>
